<svg width="188" height="62" viewBox="0 0 188 62" fill="none" xmlns="http://www.w3.org/2000/svg">
<g clip-path="url(#clip0_26_5947)">
<path d="M22.039 54.5094V61.5539C19.9206 61.3213 17.8854 60.8228 15.9664 60.1001C6.63744 56.5529 0 47.523 0 36.948C0 32.4953 1.17962 28.3085 3.2398 24.6949C4.85971 21.8538 7.02788 19.3699 9.5948 17.3762V27.6688C7.93337 30.3687 6.98635 33.542 6.98635 36.9396C6.98635 38.1525 7.11095 39.3321 7.33525 40.4785C8.36534 45.5874 11.5885 49.8989 15.9747 52.391C17.8106 53.4377 19.8625 54.1688 22.0473 54.501L22.039 54.5094Z" fill="#139D8F"/>
<path d="M48.8546 42.6133H34.1093L39.0272 47.5312L47.0436 55.5476L42.7571 59.8341L34.641 51.718L30.3213 47.3899V61.6783H24.257V36.549H42.5245C42.4996 35.3445 42.3501 34.1566 42.0926 33.0185C41.4197 30.0113 39.9825 27.2948 37.9888 25.0768V16.0137C40.4311 17.5671 42.5827 19.5276 44.3438 21.8038C47.5171 25.8909 49.4278 30.9998 49.5109 36.549C49.5109 36.6737 49.5109 36.8149 49.5109 36.9478C49.5109 38.9 49.2866 40.794 48.8546 42.6133Z" fill="#139D8F"/>
<path d="M36.4104 32.5285V14.801L33.7604 12.6245L31.6089 11.0212V7.90601L29.7896 6.08674L25.2954 1.59255L24.0078 0.304932L22.7285 1.58424L16.3901 7.92262V14.3275L11.2396 18.3648V32.2461C10.0849 32.595 10.3591 32.894 10.2926 32.9356C10.8658 32.811 11.4556 32.6947 12.0703 32.5867C12.6602 32.487 13.2666 32.3956 13.8896 32.3208C14.8699 32.1962 15.8833 32.1049 16.9051 32.0384C17.5032 31.9969 18.1097 31.9636 18.7244 31.947C22.7285 31.7892 26.8322 31.9719 30.3129 32.2461C30.9443 32.2959 31.5424 32.3458 32.1322 32.4039C36.103 32.7694 38.9192 33.2014 39.2016 33.2429C37.9472 32.9688 37.5734 32.7279 36.4104 32.5202V32.5285ZM13.8979 19.7687L16.3984 17.9079V31.3987C15.4431 31.515 14.6123 31.648 13.8979 31.7975V19.7687ZM28.9672 31.6396C24.3899 31.0831 22.4045 31.0249 19.5551 31.1911C19.3807 31.1994 19.2062 31.2077 19.0401 31.2243V8.68689L24.0161 3.71088L28.9589 8.65366V31.6396H28.9672ZM33.7604 32.2045C33.2038 32.1132 32.6556 32.0301 32.1239 31.9553C31.9494 31.9304 31.775 31.9055 31.6089 31.8806V14.585L33.7604 16.1883V32.2128V32.2045Z" fill="#212008"/>
<path d="M59.197 20.6242C59.197 20.8651 59.4628 21.0313 60.0028 21.1226C60.5428 21.2057 61.415 21.2805 62.6279 21.3303C64.6299 21.4383 66.1003 21.5712 67.0473 21.754C69.3152 22.186 70.5779 23.0333 70.8354 24.296C70.8686 24.4704 70.8935 24.6449 70.8935 24.836C70.8935 25.5171 70.7357 26.1236 70.4283 26.6386C70.121 27.1537 69.7139 27.569 69.2072 27.893C68.7004 28.2087 68.0774 28.4745 67.338 28.6739C66.5987 28.8733 65.8428 29.0145 65.0702 29.0892C64.2976 29.164 63.4503 29.1972 62.5282 29.1972C61.8553 29.1972 61.2489 29.1806 60.7172 29.1557C60.1856 29.1308 59.6373 29.0726 59.0641 28.9979C58.4909 28.9148 57.9925 28.8151 57.5605 28.6822C57.1285 28.5576 56.7048 28.3831 56.2978 28.1588C55.8824 27.9345 55.5418 27.677 55.2594 27.378C54.9769 27.0789 54.7443 26.7134 54.5533 26.2897C54.3622 25.866 54.2293 25.3842 54.1628 24.8443H59.197C59.4545 25.2929 59.8616 25.6002 60.4265 25.783C60.9914 25.9657 61.6892 26.0488 62.5199 26.0488C62.9269 26.0488 63.3174 26.0322 63.6829 25.9907C64.0484 25.9574 64.3973 25.891 64.7379 25.8079C65.0785 25.7248 65.3443 25.6002 65.552 25.4341C65.7514 25.2679 65.8511 25.0769 65.8511 24.8443C65.8511 24.7612 65.8178 24.6781 65.7431 24.6117C65.6683 24.5452 65.552 24.4871 65.3775 24.4372C65.2031 24.3874 65.0453 24.3541 64.8708 24.3209C64.7047 24.2877 64.4638 24.2628 64.1564 24.2378C63.849 24.2129 63.5832 24.188 63.3589 24.1797C63.1346 24.1714 62.8189 24.1548 62.4202 24.1298C60.4182 24.0302 58.9478 23.8889 58.0008 23.7062C55.7329 23.2742 54.4702 22.4269 54.2127 21.1642C54.1795 20.9897 54.1545 20.8153 54.1545 20.6325C54.1545 17.725 56.9458 16.2629 62.5199 16.2629C63.2011 16.2629 63.7992 16.2879 64.3225 16.3128C64.8459 16.3377 65.4025 16.3959 65.9757 16.4706C66.5572 16.5454 67.0556 16.6534 67.4876 16.778C67.9195 16.9026 68.3349 17.077 68.7503 17.3013C69.1656 17.5256 69.5062 17.7832 69.7887 18.0822C70.0628 18.3813 70.3037 18.7468 70.5031 19.1788C70.7025 19.6107 70.8271 20.0926 70.8852 20.6325H65.8511C65.5935 20.1839 65.1865 19.8683 64.6299 19.6938C64.0733 19.5194 63.3672 19.4363 62.5282 19.4363C62.1128 19.4363 61.7224 19.4529 61.3652 19.4861C61.008 19.5194 60.6591 19.5775 60.3102 19.6689C59.9613 19.752 59.6954 19.8766 59.4961 20.0427C59.2967 20.2089 59.197 20.4082 59.197 20.6408V20.6242Z" fill="#212008"/>
<path d="M72.1729 28.8901V16.5623H78.1873L82.9971 22.7262L87.8153 16.5623H93.8214V28.8901H89.0115V22.3108L84.1934 28.8901H81.7926L76.9744 22.3108V28.8901H72.1646H72.1729Z" fill="#212008"/>
<path d="M94.1869 28.9065L100.799 16.5786H106.515L113.127 28.9065H107.719L106.747 26.7965H100.575L99.6032 28.9065H94.1952H94.1869ZM103.665 20.1507L101.971 23.7893H105.352L103.665 20.1507Z" fill="#212008"/>
<path d="M113.493 16.5706H125.372C126.203 16.5706 126.984 16.7699 127.698 17.1936C128.421 17.609 128.994 18.1822 129.409 18.9049C129.833 19.6276 130.032 20.4002 130.024 21.2309C130.024 22.1613 129.775 23.0003 129.285 23.7563C128.795 24.5122 128.147 25.0688 127.341 25.4426L130.032 28.8984H124.915L122.597 25.8912H118.303V28.8984H113.493V16.5706ZM124.159 20.1759H118.303V22.2776H124.159C124.45 22.2776 124.699 22.1779 124.899 21.9785C125.106 21.7709 125.214 21.5216 125.214 21.2392C125.214 20.9568 125.115 20.6992 124.907 20.4916C124.699 20.2839 124.45 20.1842 124.159 20.1842V20.1759Z" fill="#212008"/>
<path d="M141.339 28.9065H136.529V20.483H130.813V16.5786H147.046V20.483H141.33V28.9065H141.339Z" fill="#212008"/>
<path d="M54.1629 33.1267H66.0422C66.8729 33.1267 67.6538 33.3261 68.3682 33.7498C69.0909 34.1651 69.6641 34.7383 70.0795 35.461C70.4948 36.1838 70.7025 36.9563 70.6942 37.787C70.7025 38.6178 70.5031 39.3986 70.0795 40.1131C69.6558 40.8358 69.0826 41.409 68.3682 41.8243C67.6538 42.2397 66.8729 42.4474 66.0422 42.4391H58.9728V45.4463H54.1629V33.1184V33.1267ZM58.9728 38.8338H64.8459C65.1367 38.8338 65.3776 38.7341 65.577 38.5347C65.7847 38.327 65.8927 38.0778 65.8927 37.7954C65.8927 37.5129 65.793 37.2554 65.577 37.056C65.3776 36.8483 65.1284 36.7403 64.8459 36.7403H58.9728V38.8421V38.8338Z" fill="#212008"/>
<path d="M71.9984 33.1184H83.8777C84.7084 33.1184 85.4893 33.3178 86.2037 33.7414C86.9264 34.1568 87.4996 34.73 87.915 35.4527C88.3387 36.1755 88.538 36.948 88.5297 37.7787C88.5297 38.7091 88.2805 39.5482 87.7904 40.3041C87.3003 41.0601 86.6523 41.6167 85.8465 41.9905L88.538 45.4463H83.4208L81.1031 42.4391H76.8083V45.4463H71.9984V33.1184ZM82.6648 36.7237H76.8083V38.8254H82.6648C82.9556 38.8254 83.2048 38.7258 83.4042 38.5264C83.6119 38.3187 83.7199 38.0695 83.7199 37.787C83.7199 37.5046 83.6202 37.2471 83.4125 37.0394C83.2048 36.8317 82.9556 36.732 82.6648 36.732V36.7237Z" fill="#212008"/>
<path d="M90.025 45.4546V33.1267H104.455V36.2834H94.8349V37.8618H104.455V40.7112H94.8349V42.2895H104.455V45.4546H90.025Z" fill="#212008"/>
<path d="M106.997 45.4294V33.1016H113.011L117.821 39.2655L122.639 33.1016H128.645V45.4294H123.835V38.8501L119.017 45.4294H116.616L111.798 38.8501V45.4294H106.988H106.997Z" fill="#212008"/>
<path d="M131.436 33.1101H136.246V45.438H131.436V33.1101Z" fill="#212008"/>
<path d="M142.576 37.1721C142.576 37.413 142.842 37.5791 143.382 37.6705C143.922 37.7536 144.794 37.8283 146.007 37.8782C148.009 37.9862 149.48 38.1191 150.427 38.3018C152.694 38.7338 153.957 39.5812 154.215 40.8438C154.248 41.0183 154.273 41.1927 154.273 41.3838C154.273 42.065 154.115 42.6714 153.808 43.1865C153.5 43.7015 153.093 44.1169 152.586 44.4409C152.08 44.7565 151.457 45.0224 150.717 45.2217C149.978 45.4211 149.222 45.5623 148.449 45.6371C147.677 45.7119 146.83 45.7451 145.907 45.7451C145.235 45.7451 144.628 45.7285 144.097 45.7035C143.565 45.6786 143.017 45.6205 142.443 45.5457C141.87 45.4626 141.372 45.363 140.94 45.23C140.508 45.1054 140.084 44.931 139.677 44.7067C139.262 44.4824 138.921 44.2249 138.639 43.9258C138.356 43.6268 138.124 43.2612 137.933 42.8376C137.741 42.4139 137.609 41.9321 137.542 41.3921H142.576C142.834 41.8407 143.241 42.1481 143.806 42.3308C144.371 42.5136 145.068 42.5967 145.899 42.5967C146.306 42.5967 146.697 42.58 147.062 42.5385C147.428 42.5053 147.777 42.4388 148.117 42.3558C148.458 42.2727 148.724 42.1481 148.931 41.9819C149.131 41.8158 149.23 41.6247 149.23 41.3921C149.23 41.309 149.197 41.226 149.122 41.1595C149.048 41.0931 148.931 41.0349 148.757 40.9851C148.582 40.9352 148.425 40.902 148.25 40.8688C148.084 40.8355 147.843 40.8106 147.536 40.7857C147.228 40.7608 146.962 40.7359 146.738 40.7275C146.514 40.7192 146.198 40.7026 145.799 40.6777C143.797 40.578 142.327 40.4368 141.38 40.254C139.112 39.8221 137.849 38.9747 137.592 37.712C137.559 37.5376 137.534 37.3631 137.534 37.1804C137.534 34.2729 140.325 32.8108 145.899 32.8108C146.58 32.8108 147.178 32.8357 147.702 32.8606C148.225 32.8856 148.782 32.9437 149.355 33.0185C149.936 33.0932 150.435 33.2012 150.867 33.3258C151.299 33.4504 151.714 33.6249 152.13 33.8492C152.545 34.0735 152.886 34.331 153.168 34.6301C153.442 34.9291 153.683 35.2946 153.882 35.7266C154.082 36.1586 154.206 36.6404 154.264 37.1804H149.23C148.973 36.7318 148.566 36.4161 148.009 36.2417C147.453 36.0672 146.746 35.9841 145.907 35.9841C145.492 35.9841 145.102 36.0008 144.744 36.034C144.387 36.0672 144.038 36.1254 143.689 36.2167C143.341 36.2998 143.075 36.4244 142.875 36.5906C142.676 36.7567 142.576 36.9561 142.576 37.1887V37.1721Z" fill="#212008"/>
<path d="M155.552 45.4546V33.1267H169.982V36.2834H160.362V37.8618H169.982V40.7112H160.362V42.2895H169.982V45.4546H155.552Z" fill="#212008"/>
<path d="M176.304 37.1721C176.304 37.413 176.569 37.5791 177.109 37.6705C177.649 37.7536 178.522 37.8283 179.734 37.8782C181.736 37.9862 183.207 38.1191 184.154 38.3018C186.422 38.7338 187.684 39.5812 187.942 40.8438C187.975 41.0183 188 41.1927 188 41.3838C188 42.065 187.842 42.6714 187.535 43.1865C187.227 43.7015 186.82 44.1169 186.314 44.4409C185.807 44.7565 185.184 45.0224 184.445 45.2217C183.705 45.4211 182.949 45.5623 182.177 45.6371C181.404 45.7119 180.557 45.7451 179.635 45.7451C178.962 45.7451 178.355 45.7285 177.824 45.7035C177.292 45.6786 176.744 45.6205 176.171 45.5457C175.597 45.4626 175.099 45.363 174.667 45.23C174.235 45.1054 173.811 44.931 173.404 44.7067C172.989 44.4824 172.648 44.2249 172.366 43.9258C172.083 43.6268 171.851 43.2612 171.66 42.8376C171.469 42.4139 171.336 41.9321 171.269 41.3921H176.304C176.561 41.8407 176.968 42.1481 177.533 42.3308C178.098 42.5136 178.796 42.5967 179.626 42.5967C180.033 42.5967 180.424 42.58 180.789 42.5385C181.155 42.5053 181.504 42.4388 181.844 42.3558C182.185 42.2727 182.451 42.1481 182.659 41.9819C182.858 41.8158 182.958 41.6247 182.958 41.3921C182.958 41.309 182.924 41.226 182.85 41.1595C182.775 41.0931 182.659 41.0349 182.484 40.9851C182.31 40.9352 182.152 40.902 181.977 40.8688C181.811 40.8355 181.57 40.8106 181.263 40.7857C180.956 40.7608 180.69 40.7359 180.465 40.7275C180.241 40.7192 179.925 40.7026 179.527 40.6777C177.525 40.578 176.054 40.4368 175.107 40.254C172.839 39.8221 171.577 38.9747 171.319 37.712C171.286 37.5376 171.261 37.3631 171.261 37.1804C171.261 34.2729 174.052 32.8108 179.626 32.8108C180.308 32.8108 180.906 32.8357 181.429 32.8606C181.952 32.8856 182.509 32.9437 183.082 33.0185C183.664 33.0932 184.162 33.2012 184.594 33.3258C185.026 33.4504 185.441 33.6249 185.857 33.8492C186.272 34.0735 186.613 34.331 186.895 34.6301C187.169 34.9291 187.41 35.2946 187.61 35.7266C187.809 36.1586 187.934 36.6404 187.992 37.1804H182.958C182.7 36.7318 182.293 36.4161 181.736 36.2417C181.18 36.0672 180.474 35.9841 179.635 35.9841C179.219 35.9841 178.829 36.0008 178.472 36.034C178.114 36.0672 177.766 36.1254 177.417 36.2167C177.068 36.2998 176.802 36.4244 176.603 36.5906C176.403 36.7567 176.304 36.9561 176.304 37.1887V37.1721Z" fill="#212008"/>
</g>
<defs>
<clipPath id="clip0_26_5947">
<rect width="188" height="61.3735" fill="white" transform="translate(0 0.313232)"/>
</clipPath>
</defs>
</svg>
